<svg width="2000" height="2000" viewBox="0 0 2000 2000" fill="none" xmlns="http://www.w3.org/2000/svg">
<path d="M1000.29 1674.59C1438.41 1674.59 1793.58 1319.42 1793.58 881.294C1793.58 443.17 1438.41 88 1000.29 88C562.166 88 206.996 443.17 206.996 881.294C206.996 1319.42 562.166 1674.59 1000.29 1674.59Z" fill="#E1A981"/>
<path fill-rule="evenodd" clip-rule="evenodd" d="M421.429 338.86C530.192 222.839 673.434 139.532 834.806 105.287V338.86H421.429ZM327.833 461.006H834.806V688.224H899.163H874.208V1392.21V1394.83V1426.36H843.999V1659.2C480.724 1586.61 207 1265.92 207 881.294C207 726.613 251.271 582.272 327.833 460.25V461.006ZM958.265 1430.3V1673.49C972.183 1674.22 986.195 1674.59 1000.29 1674.59C1289.02 1674.59 1541.72 1520.34 1680.48 1289.76H1114.56H1031.82V1394.83H958.265V1430.3ZM1114.56 1168.93V1204.39H1031.82V795.923H1368.05V791.535L1372.12 792.805L1528.82 289.699C1691.31 434.966 1793.59 646.186 1793.59 881.294C1793.59 982.747 1774.54 1079.75 1739.83 1168.93H1114.56ZM1427.97 213.043L1282.43 680.344H963.519V88.8373C975.708 88.2811 987.968 88 1000.29 88C1157.79 88 1304.56 133.896 1427.97 213.043Z" fill="#8DF984"/>
<path fill-rule="evenodd" clip-rule="evenodd" d="M1190.74 206.207H1094.86V277.13V416.351H1190.74V277.13H1272.17V206.207H1190.74Z" fill="#B1BFBF"/>
<path d="M1272.17 539.81H1084.35V665.896H1272.17V539.81Z" fill="#E1F3F3"/>
<path d="M1150.02 1289.76H1055.46V1348.86H1150.02V1289.76Z" fill="#B1BFBF"/>
<path d="M731.047 485.96H407.95V848.459H731.047V485.96Z" fill="#B1BFBF"/>
<path fill-rule="evenodd" clip-rule="evenodd" d="M474.934 286.881C569.959 202.832 685.288 141.216 812.629 110.328H821.671V296.831H474.934V286.881Z" fill="#B1BFBF"/>
<path fill-rule="evenodd" clip-rule="evenodd" d="M578.691 961.412H407.949V1055.98H335.713V1136.09H407.949V1187.32H578.691V961.412Z" fill="#B1BFBF"/>
<path d="M851.878 982.426H633.854V1187.32H851.878V982.426Z" fill="#B1BFBF"/>
<path d="M851.88 1360.69H698.212V1442.12H851.88V1360.69Z" fill="#B1BFBF"/>
<path d="M1412.7 1296.33H1259.03V1364.63H1412.7V1296.33Z" fill="#B1BFBF"/>
<path fill-rule="evenodd" clip-rule="evenodd" d="M1150.88 1038.9H1207.81V814.311H1094.86V855.487C1127.61 909.445 1147.67 971.966 1150.88 1038.9Z" fill="#B1BFBF"/>
<path fill-rule="evenodd" clip-rule="evenodd" d="M1716.69 540.149C1708.31 561.418 1697.19 590.013 1689.17 612.047C1685.83 621.239 1682.75 629.431 1679.87 637.122V637.123L1679.85 637.171V637.178V637.182C1670.83 661.218 1663.65 680.371 1655.68 709.895C1645.11 749.032 1641.49 771.617 1635.32 811.684C1629.75 847.905 1626.79 868.341 1624.82 904.935C1623.6 927.409 1625.33 943.385 1627.28 961.496V961.497V961.498V961.5C1628.27 970.629 1629.31 980.301 1630.07 991.62C1632.19 1023.36 1635.08 1043.44 1642.55 1074.36C1644.96 1084.34 1646.35 1092.03 1647.66 1099.26C1649.55 1109.73 1651.28 1119.26 1655.68 1133.47C1659.95 1147.26 1666.19 1168.93 1666.19 1168.93H1411.39L1400.91 1104.77L1400.87 1104.51L1400.85 1104.38C1400.21 1100.39 1389.63 1034.04 1387.75 991.62C1387.58 987.827 1387.41 984.193 1387.25 980.688C1385.75 947.97 1384.76 926.46 1387.75 891.145C1388.42 883.192 1388.99 875.9 1389.52 869.031V869.029V869.028C1391.91 838.451 1393.64 816.262 1400.88 781.476C1407.06 751.784 1411.43 733.781 1417.96 706.915V706.911C1418.79 703.469 1419.67 699.881 1420.58 696.105C1427.5 667.572 1431.72 651.742 1440.94 623.868C1445.8 609.157 1453.03 588.578 1456.57 578.574C1457.97 574.611 1459.45 570.765 1461.03 566.871C1479.88 520.426 1537.92 372.445 1559.15 318.267C1623.6 382.25 1677.14 457.226 1716.69 540.149ZM1000.29 1674.59C1290.11 1674.59 1543.63 1519.17 1682.06 1287.14H1438.97C1438.97 1287.14 1439.93 1313.18 1438.97 1329.82C1438.83 1332.23 1438.71 1334.52 1438.59 1336.7C1437.8 1351.56 1437.25 1361.86 1433.06 1377.76C1428.02 1396.87 1424.97 1408.39 1413.36 1424.39C1405.77 1434.83 1391.18 1446.61 1385.17 1451.25C1383.54 1452.51 1381.91 1453.74 1380.27 1454.98L1379.83 1455.31C1373.37 1460.18 1356.48 1472.64 1343.75 1479.55C1331.97 1485.93 1323.33 1489.12 1312.96 1492.94C1308.92 1494.43 1304.61 1496.02 1299.75 1497.94C1236.57 1522.81 1208.08 1533.94 1141.48 1547.19C1122.67 1550.93 1109.61 1552.23 1094.47 1553.73C1087.08 1554.46 1079.19 1555.24 1069.9 1556.38C1050.96 1558.71 1032.44 1559.26 1013.6 1559.83C1008.54 1559.98 1003.45 1560.13 998.323 1560.32C983.202 1560.88 956.294 1560.32 956.294 1560.32V1673.27C956.338 1673.32 956.382 1673.36 956.425 1673.4C970.947 1674.19 985.574 1674.59 1000.29 1674.59ZM843.342 1659.06V1566.23C843.342 1566.23 818.119 1566.72 801.97 1566.23C780.768 1565.59 754.83 1565.92 739.183 1566.12H739.177H739.173H739.145C734.119 1566.18 730.158 1566.23 727.763 1566.23C719.948 1566.23 677.856 1565.14 660.779 1563.61C655.963 1563.17 629.917 1560.32 608.902 1556.38C600.884 1554.88 588.279 1552.52 576.737 1552.17C657.008 1602.96 747.021 1639.73 843.342 1659.06Z" fill="#0CAED1"/>
<path fill-rule="evenodd" clip-rule="evenodd" d="M759.284 1469.7C843.244 1469.7 921.161 1443.83 985.497 1399.62L1473.01 1885.28C1486.26 1901.01 1506.1 1911 1528.28 1911C1568.18 1911 1600.52 1878.66 1600.52 1838.76C1600.52 1819.81 1593.22 1802.56 1581.28 1789.68L1581.52 1789.44L1087.93 1297.73C1132.87 1233.06 1159.22 1154.49 1159.22 1069.77C1159.22 848.892 980.159 669.837 759.284 669.837C538.408 669.837 359.354 848.892 359.354 1069.77C359.354 1290.64 538.408 1469.7 759.284 1469.7ZM760.598 1432.92C841.91 1432.92 916.98 1406.2 977.504 1361.06L1052.72 1285.56C1097.36 1225.23 1123.75 1150.58 1123.75 1069.77C1123.75 869.202 961.163 706.612 760.598 706.612C560.033 706.612 397.443 869.202 397.443 1069.77C397.443 1270.33 560.033 1432.92 760.598 1432.92Z" fill="#2A3334"/>
<path d="M716.438 702.391L633.087 710.326L703.746 1452.5L787.097 1444.57L716.438 702.391Z" fill="#2A3334" fill-opacity="0.2"/>
<path d="M797.079 696.564L759.941 700.1L830.6 1442.28L867.738 1438.74L797.079 696.564Z" fill="#2A3334" fill-opacity="0.2"/>
</svg>
